<?xml version="1.0" encoding="utf-8"?>
<!-- Generator: Adobe Illustrator 27.1.0, SVG Export Plug-In . SVG Version: 6.00 Build 0)  -->
<svg version="1.1" id="Layer_1" xmlns="http://www.w3.org/2000/svg" xmlns:xlink="http://www.w3.org/1999/xlink" x="0px" y="0px"
	 viewBox="0 0 954 781" style="enable-background:new 0 0 954 781;" xml:space="preserve">
<style type="text/css">
	.st0{fill:#F9617D;}
	.st1{fill:#E6E6E6;}
	.st2{fill:#CCCCCC;}
	.st3{fill:#3F3D56;}
	.st4{fill:#F2F2F2;}
	.st5{fill:#9F616A;}
	.st6{fill:#A0616A;}
	.st7{fill:#2F2E41;}
</style>
<path id="bec063ed-0fa9-413a-bd83-d8526fa41b8c-545" class="st0" d="M316.6,447.7l26.9,46.7l26.9,46.7H262.7l26.9-46.7L316.6,447.7z
	"/>
<rect id="aa6e6c0d-ca3b-4989-ae08-5d6fb21b7d28" x="50.5" y="356" class="st1" width="113" height="113"/>
<circle id="e644b8cb-fae5-4de8-b33a-50bfc45133bc" class="st0" cx="244.5" cy="211.5" r="72.5"/>
<path id="a646102d-3f95-413e-a731-a5030e030d8b-546" class="st2" d="M309.8,332.6c0-6.6,5.4-12,12-12s12,5.4,12,12
	c0,6.6-5.4,12-12,12S309.8,339.2,309.8,332.6z M311.8,332.6c0,5.5,4.5,10,10,10s10-4.5,10-10c0-5.5-4.5-10-10-10
	S311.8,327,311.8,332.6z"/>
<path id="a7867f82-9da8-49b7-a62f-5fc2df52f7dd-547" class="st2" d="M206.4,541.3l-17.7-18.9l18.9-17.7l17.7,18.9L206.4,541.3z
	 M191.6,522.5l14.9,16l16-14.9l-14.9-16L191.6,522.5z"/>
<path id="abfd432a-addf-48b7-a638-56871f84cdda-548" class="st2" d="M60.5,271.9l-14.4-15.4l15.4-14.4L76,257.5L60.5,271.9z
	 M48.5,256.6l12.2,13l13-12.2l-12.2-13L48.5,256.6z"/>
<path id="b4b6c2e3-9a65-466b-808f-faa311f7d0ed-549" class="st3" d="M262.5,293c-55.2,0-100-44.8-100-100s44.8-100,100-100
	s100,44.8,100,100S317.7,293,262.5,293z M262.5,95c-54.1,0-98,43.9-98,98s43.9,98,98,98s98-43.9,98-98S316.6,95,262.5,95L262.5,95z"
	/>
<rect id="f21400a3-3aa1-44f2-adc5-de8006399ef9" x="159.1" y="297.1" transform="matrix(0.4331 -0.9013 0.9013 0.4331 -161.6058 339.2937)" class="st3" width="59.6" height="2"/>
<rect id="fdf13e27-5b88-4b47-a548-6eba64ef8ea7" x="250.4" y="363.1" transform="matrix(0.476 -0.8795 0.8795 0.476 -244.4846 445.2705)" class="st3" width="2" height="129.4"/>
<path id="ec996080-b25c-43f9-95b1-17d83c771fa1-550" class="st3" d="M195.5,470h-146V324h146V470z M51.5,468h142V326h-142V468z"/>
<path id="e64eb5c0-2762-4bb4-99c9-e384d48b09ae-551" class="st3" d="M412,542H261l75.5-130.8L412,542z M264.5,540h144.1l-72-124.8
	L264.5,540z"/>
<rect id="b99807fe-d1e7-4c81-968c-d37ef9c7f61f" y="779" class="st1" width="715" height="2"/>
<path id="af6ca119-d97b-47e3-8175-f2ef9a50390c-552" class="st1" d="M206.3,716.6c10.3,3.6,21.8,1.6,30.3-5.3
	c10.6-8.9,14-23.6,16.7-37.2l8-40.2l-16.8,11.6c-12.1,8.3-24.4,16.9-32.8,28.9s-12,28.5-5.3,41.5"/>
<path id="af7a4949-e0bd-4368-90b0-825d65eef9dd-553" class="st4" d="M208.9,768.1c-2.1-15.4-4.3-31-2.8-46.5
	c1.3-13.8,5.5-27.3,14.1-38.4c4.6-5.9,10.1-10.9,16.4-14.8c1.6-1,3.1,1.6,1.5,2.6c-10.9,6.9-19.3,17-24,29
	c-5.2,13.3-6.1,27.8-5.2,41.9c0.5,8.5,1.7,17,2.9,25.5c0.2,0.8-0.3,1.6-1,1.8C209.9,769.4,209.1,768.9,208.9,768.1L208.9,768.1z"/>
<path id="aa567de9-de23-4828-818f-c81c945c4442-554" class="st1" d="M348.7,746.9c5,5.9,12.8,8.8,20.5,7.6c9.7-1.6,17-9.4,23.5-16.8
	L412,716l-14.4,1c-10.4,0.8-21,1.6-30.4,5.9s-17.5,13.1-18.1,23.5"/>
<path id="fe38c075-c327-4996-87fc-6abec6d8ced7-555" class="st4" d="M332.1,777.2c3.4-8.2,6.8-16.5,12-23.7
	c4.6-6.4,10.6-11.8,18-14.8c3.9-1.6,8.1-2.4,12.3-2.6c1.1,0,1.1,1.7,0,1.7c-7.3,0.2-14.4,2.8-20.1,7.3c-6.4,5-11,11.9-14.6,19.1
	c-2.2,4.4-4.1,8.9-5.9,13.4c-0.1,0.4-0.6,0.7-1,0.6C332.3,778.2,332,777.7,332.1,777.2L332.1,777.2z"/>
<path id="ae9d33bb-edce-455d-ba46-f884f02ee286-556" class="st1" d="M224.1,743.4c4.4,6.7,12.1,10.7,20.1,10.4
	c10.2-0.5,18.7-7.6,26.4-14.4l22.6-20l-15-0.7c-10.8-0.5-21.8-1-32.1,2.3s-19.7,11.3-21.6,21.9"/>
<path id="f4a10cc1-a745-4bdf-8c47-a58c703e8c56-557" class="st4" d="M202.9,777c10.2-18,22-38,43-44.4c5.9-1.8,12-2.4,18.1-1.9
	c1.9,0.2,1.4,3.1-0.5,3c-10.2-0.8-20.4,1.9-28.9,7.6c-8.1,5.5-14.5,13.3-19.9,21.4c-3.3,5-6.2,10.2-9.2,15.4
	C204.7,779.9,202,778.7,202.9,777z"/>
<path id="e6c92f99-e819-44b3-a3ab-322ae3ae9c0f-558" class="st1" d="M23.5,745.1c7.5,2.6,15.8,1.2,21.9-3.9
	c7.7-6.5,10.1-17.1,12.1-26.9l5.8-29.1l-12.1,8.4c-8.7,6-17.7,12.2-23.7,20.9s-8.7,20.6-3.8,30"/>
<path id="a52ffbd1-05e9-4477-9f5c-0a49e3800732-559" class="st4" d="M24.5,780.4c-1.2-9-2.5-18-1.6-27.1c0.8-8,3.2-15.9,8.2-22.3
	c2.6-3.4,5.9-6.3,9.5-8.6c1-0.6,1.8,0.9,0.9,1.5c-6.3,4-11.2,9.9-14,16.8c-3,7.7-3.5,16.2-3,24.4c0.3,5,1,9.9,1.7,14.8
	c0.1,0.5-0.2,0.9-0.6,1.1C25.1,781.1,24.7,780.8,24.5,780.4L24.5,780.4z"/>
<path id="a0fb9511-7a08-40c5-84ea-69c7b1520cf5-560" class="st3" d="M115,780.5c-0.3-0.4-6.5-10.8-8.6-32.4
	c-2-19.8-0.7-53.1,16.6-99.7c32.8-88.1-7.6-159.3-8-160l2-1.2c0.1,0.2,10.5,18.3,16.7,47.2c8.1,38.3,5.2,78.1-8.5,114.7
	c-32.7,88-8.4,129.6-8.1,130.1L115,780.5z"/>
<circle id="f311804e-8539-4d4f-8733-0b334c90657a" class="st0" cx="149.3" cy="523.5" r="14.9"/>
<circle id="a6573fda-74df-4cf8-bcdf-8c67e75bc2cf" class="st0" cx="105.6" cy="639.6" r="14.9"/>
<path id="ac75699b-0dec-44f0-aa90-11495e5daa36-561" class="st1" d="M122.6,780c0,0-12.8-31.4,25.5-54.9L122.6,780z"/>
<path id="f26d9f94-3dcd-492b-9651-88d3329d1691-562" class="st1" d="M106.9,779.4c0,0-3.9-22.4-34-22.2L106.9,779.4z"/>
<path id="ecf71195-8595-47d1-9f0d-85506c4dd5f7-563" class="st2" d="M141.8,597.4c0-6.6,5.4-12,12-12s12,5.4,12,12s-5.4,12-12,12
	S141.8,604,141.8,597.4z M143.8,597.4c0,5.5,4.5,10,10,10s10-4.5,10-10s-4.5-10-10-10S143.8,591.8,143.8,597.4z"/>
<path id="a4f0274e-f5b3-4a0e-a250-2f78ed178189-564" class="st2" d="M105.6,560.3c0-6.6,5.4-12,12-12s12,5.4,12,12s-5.4,12-12,12
	S105.6,567,105.6,560.3z M107.6,560.3c0,5.5,4.5,10,10,10s10-4.5,10-10s-4.5-10-10-10S107.6,554.8,107.6,560.3z"/>
<g id="baec859b-4664-4042-84b3-8b12dc19197c">
	<path id="a8e8d335-bc79-4a28-94f9-614ba261e126-565" class="st5" d="M905.1,498.5c-3.4,2.5-7.8,3.3-11.8,2.2l0,0
		c-7.5-2-12-9.7-10-17.2c0-0.2,0.1-0.4,0.2-0.5c0.2-0.7,0.5-1.3,0.8-1.9l-27.7-124.4c-1.8-6,1.6-12.3,7.6-14c6-1.8,12.3,1.6,14,7.6
		l0,0c0,0.1,0,0.2,0.1,0.2l26.2,124.8c6.6,4.1,8.6,12.8,4.5,19.4C907.9,496.1,906.6,497.4,905.1,498.5L905.1,498.5z"/>
	<path id="afd5e353-327d-4eb9-8c44-5bbf6b3b42bc-566" class="st6" d="M941.9,765.4h-15l-7.2-58H942L941.9,765.4z"/>
	<path id="a5c5e3ad-7ae7-4273-aee0-b8af9012f8eb-567" class="st7" d="M945.8,780h-48.5v-0.6c0-10.4,8.4-18.9,18.9-18.9h29.6V780z"/>
	<path id="bd288028-f7c4-4616-94da-c314ff6508b8-568" class="st6" d="M791.3,765l-14.3-4.6l11-57.4l21.1,6.8L791.3,765z"/>
	<path id="b1a1bcec-635c-498f-8374-9b61c7fe9f7a-569" class="st7" d="M790.4,780l-46.1-14.9l0.2-0.6c3.2-9.9,13.8-15.3,23.8-12.1
		l0,0l28.2,9.1L790.4,780z"/>
	<circle id="e7e9d44e-3da8-4950-b68f-3fc4466331ff" class="st5" cx="858.7" cy="297.6" r="25.4"/>
	<path id="a5c6c761-247a-4902-a0d4-baf8f46a74e0-570" class="st7" d="M892.8,396.2c3.5-13.1-12.6-54.2-13.9-59.4
		c-6.3-1.5-20.9,1.3-29.8-0.5c-12.7,10.7-22.9,25.9-29.9,33.1c-7.3,7.5-12,12.6-4.5,30.2c9.1,21.3,7.1,43.6,7.1,43.6l6.1,53.8
		c0,0-25.4,71-23.3,118.7l-23.3,116.6c0,0,7.1,12.2,21.3,6.1c0,0,33.5-59.8,30.4-103.5l36.5-81.1c0,0,25.4,77.1,32.5,84.2
		l18.3,109.5c0,0,17.2,5.1,25.4,0c0,0,3-105.5-14.2-122.7c0,0-17.2-73-13.2-92.3c4.1-19.3,5.1-48.7-25.4-75.1c0,0,0.3,0.1-9.1-17.2
		L892.8,396.2z"/>
	<path id="af145ef0-0255-4739-8879-297ab98a0d16-571" class="st7" d="M871.9,258.4L871.9,258.4c-1.4,0-2.8,0.1-4.2,0.4
		c-2.5-1.2-5.3-1.9-8.1-1.9h-0.7c-14.2,0-25.6,12.8-25.6,28.6h4.7l0.8-5.8l1.1,5.8h3.9c-1.2,4.7-1.8,9.5-1.8,14.3V329h7.2l4.2-10.8
		l-1,10.8h46.1l3.8-9.8l-0.9,9.8h5.2v-22.9C906.4,279.8,890.9,258.4,871.9,258.4z"/>
	<path id="ea9385fa-bd74-4f9e-87fe-47e8c2aeba8a-572" class="st5" d="M819.1,512.9c-4.2,0.6-8.4-0.6-11.5-3.5l0,0
		c-5.8-5.2-6.2-14.1-1-19.9c0.1-0.1,0.3-0.3,0.4-0.4c0.5-0.5,1-0.9,1.6-1.4l32.1-123.3c1.1-6.1,7-10.2,13.2-9c6.1,1.1,10.2,7,9,13.2
		l0,0c0,0.1,0,0.2,0,0.3l-33.7,123c4,6.7,1.8,15.3-4.8,19.3C822.6,512,820.9,512.6,819.1,512.9L819.1,512.9z"/>
</g>
</svg>
