<?xml version="1.0" encoding="utf-8"?>
<!-- Generator: Adobe Illustrator 27.1.0, SVG Export Plug-In . SVG Version: 6.00 Build 0)  -->
<svg version="1.1" id="Layer_1" xmlns="http://www.w3.org/2000/svg"
	xmlns:xlink="http://www.w3.org/1999/xlink" x="0px" y="0px"
	viewBox="0 0 435 585.4" style="enable-background:new 0 0 435 585.4;" xml:space="preserve">
<style type="text/css">
	.st0{fill:#FFB6B6;}
	.st1{fill:#2F2E41;}
	.st2{fill:#F9617D;}
	.st3{fill:#3F3D56;}
	.st4{fill:#FFFFFF;}
</style>
<g>
	<polygon class="st0" points="355,573.4 342.9,573.4 337.2,526.7 355,526.7 	"/>
	<path class="st1" d="M355.4,586h-37.2v-0.5c0-8,6.5-14.5,14.5-14.5l0,0l6.8-5.2l12.7,5.2h3.3V586z"/>
	<polygon class="st0" points="407.8,573.4 395.7,573.4 389.9,526.7 407.8,526.7 	"/>
	<path class="st1" d="M408.2,586H371v-0.5c0-8,6.5-14.5,14.5-14.5l0,0l6.8-5.2l12.7,5.2h3.3V586z"/>
	<path class="st1" d="M324.9,319.3c0,0-11.7,35.8-9.5,40.4c2.2,4.7,5.8,1,2.2,4.7c-3.7,3.7-6.8-0.3-3.4,6s8.7,57.4,10.9,59.9
		c2.3,2.5,5.4,2.6,2.7,4.9c-2.8,2.3-6.4-2.5-2.8,2.4c3.6,4.9,13.4,117.6,13.4,117.6h19c0,0,4.8-5.4,2.1-9s0.3-4.9,0-7.3
		s0.7-7.5,0.8-9.8c0.2-2.3,3.3-57.8-4.3-89.9l14.1-61.1l17,73.9c0,0-7.8,61.9,0,81.9c0,0-6.3,5.3-3.5,8.3s5.3,0.6,2.8,3.1
		c-2.4,2.5,3.7,11,3.7,11l20.8-1.3l11.8-115.7c0,0,2-12.1,0-14.2c-2-2.1-2,5.3-2-2.1v-9.8c0,0-1.2-60.1-1.3-63.6
		c-0.2-3.5-14.8-29.2-14.8-29.2L324.9,319.3z"/>
	<path class="st2" d="M325.1,195.8v70.4c2.3,6.8,3.4,14,3.5,21.2c-0.1,12-2.7,25.8-2.7,31.8c0,0.8,0.1,1.6,0.3,2.4
		c11.7,33.8,73.4,3.1,79,0.2c0.3-0.2,0.4-0.2,0.4-0.2l-1.3-37.8l0.2-10.9l1.4-74.7l-1.3-1l-11.3-9l-1.1-0.9l-3.4,5l-30.3-2.1
		l-11.6-3.2l-3.6,1.5l-16.3,6.5L325.1,195.8z"/>
	<path class="st0" d="M307.1,337.6l4-22l12.9,0.5l-5,23.1c2,3.6,0.8,8.2-2.9,10.2c-3.6,2-8.2,0.8-10.2-2.9
		C304.3,343.6,304.8,339.9,307.1,337.6L307.1,337.6z"/>
	<path class="st2" d="M327.1,195.7L327.1,195.7c6.7,1.8,10.4,10.3,12.8,16.8c3,8.3-1.8,59.3-7.8,66.7c-4.6,5.8-3.5,4.7-2,9.4
		c1.5,4.8,5,0.1,1.8,7.3c-3.2,7.2-5.8,5.8-3.8,8.8c2.1,3,4.6,2.7,1.8,7.3c-2.8,4.6-2.4,6.2-3,7.9c-0.6,1.8-1.3,14.3-1.3,14.3
		s-13.7-2.3-20.8,0.5c0,0,4.9-12.3,2.9-14.6c-2-2.3-4.6-2.7-2.4-5.5c2.2-2.8,6.3-2.6,1.8-4.4s-0.7-28.2-0.7-28.2
		c-5-17.3-1.5-43.3,3.5-70.8C311.7,202.8,318.6,196.5,327.1,195.7z"/>
	<path class="st0" d="M413,336.2l1-22.3l12.8-1.3l-1.8,23.6c2.5,3.3,1.8,8-1.5,10.5s-8,1.8-10.5-1.5C411,342.5,411,338.9,413,336.2
		L413,336.2z"/>
	<path class="st2" d="M399.6,196.1l0.3,0.1c6.8,0.8,12.8,4.9,15.9,11c4.1,7.8,17,60.5,13.8,67.8c-2.9,6.8-2.8,5.1-0.7,9.6
		c2.2,4.5,5-0.6,2.8,6.9c-2.2,7.5-5,6.6-2.5,9.3c2.5,2.7,4.8,2,2.8,6.9c-2,4.9-1.6,6.4-1.9,8.3s0.7,14.3,0.7,14.3
		s-13.8-0.3-20.5,3.3c0,0,3.2-12.9,0.9-14.8c-2.3-1.9-4.8-2-3.2-5.1c1.7-3.1,5.9-3.4,1.3-4.7s-4.5-27.8-4.5-27.8L399.6,196.1z"/>
	<path class="st0" d="M366.5,167.6c0.6,0.1,1.1,0.3,1.7,0.3c1.7,0.3,3.3,0.3,5,0.3c13-0.7,23-11.8,22.3-24.8s-11.8-23.1-24.9-22.4
		c-10.3,0.6-19,7.7-21.6,17.7c-0.1,0.2-0.1,0.3-0.2,0.6C345.9,151.9,353.9,164.6,366.5,167.6z"/>
	<path class="st1" d="M388.4,164.8c3.3-2.6,3.6-7.5,6.4-10.6c4.7-5.2,6.9-10.8,4.4-16.8c-2.2-5.4-1.8-12.1-6.4-15.6
		c2.3-0.8,2.8-2.6,0.8-2.6c-1.3,0-6.5,2.6-4-0.7c2.5-3.3-2.2-2-1.9-3.3c0.3-1.3,2.3-2.1,3.2-1c-2.8-3.3-8.8-2.6-10.8,1.3
		c-2.8-4.2-5.7-7-9.9-4.3c-4.2,2.6-4.1,5.8-8.6,5c-2.1-0.3-2.3,3.6-3.8,5.2c-1.4,1.6-3.5,2.8-5.7,2.4c-2.2-0.4-3.7-3-2.5-4.8
		l-4.9,11.3l-2-2.4c-3.2,2.1-2.1,7.4,1.1,9.5c3.2,2.1,9.3-2.7,11,0.7c2.8,5.3,9.1,2.6,13.5-1.1c5.3-4.5,11.8,9.3,9.2,15.8
		c2.7-2.6,7.6-0.4,8.9,3c1.3,3.4,0.3,7.3-0.7,10.9L388.4,164.8z"/>
	<polygon class="st3" points="343.4,188.4 344.2,189.5 346.4,192.3 354.6,216.6 393.4,188.2 392.2,187.3 386.3,174.7 356,172.7 
		346.9,187 	"/>
	<path class="st4" d="M384.6,250.3c-1.9,21-15.9,36.8-31.2,35.4c-15.3-1.4-26.1-19.6-24.2-40.6C345.1,255.5,363.4,257.5,384.6,250.3
		z"/>
	<path class="st4" d="M348.4,225.3c-0.1,1.3-0.3,2.5-0.7,3.7c-1,3.1-3,5.3-5.2,5.6c-0.3,0-0.4,0-0.7,0c-2.4-0.2-4.4-2.8-5.1-6.3
		c-0.3-1.3-0.3-2.5-0.2-3.8s0.3-2.4,0.7-3.7c1.1-3.4,3.4-5.8,5.8-5.7C346.4,215.5,348.9,220,348.4,225.3z"/>
	<path class="st3" d="M344.9,229.5c-0.1,1.9-0.9,3.7-2.3,5.1c-0.3,0-0.4,0-0.7,0c-2.4-0.2-4.4-2.8-5.1-6.3c-0.3-1.3-0.3-2.5-0.2-3.8
		c0.1-1.3,0.3-2.4,0.7-3.7C341.8,221.2,345.1,225.1,344.9,229.5z"/>
	<path class="st4" d="M372.9,226.9c-0.3,5.1-3,9.2-6.2,9.3c-0.2,0-0.3,0-0.4,0c-3.3-0.3-5.6-4.7-5.3-10c0.1-1.3,0.3-2.4,0.7-3.7
		c1.1-3.5,3.4-5.8,5.8-5.7C370.9,217.1,373.3,221.6,372.9,226.9z"/>
	<path class="st3" d="M369,231.1c-0.1,1.9-0.9,3.8-2.3,5.1c-0.2,0-0.3,0-0.4,0c-3.3-0.3-5.6-4.7-5.3-10c0.1-1.3,0.3-2.4,0.7-3.7
		C366.1,222.9,369.3,226.7,369,231.1z"/>
</g>
</svg>