<?xml version="1.0" encoding="utf-8"?>
<!-- Generator: Adobe Illustrator 27.1.0, SVG Export Plug-In . SVG Version: 6.00 Build 0)  -->
<svg version="1.1" id="Layer_1" xmlns="http://www.w3.org/2000/svg" xmlns:xlink="http://www.w3.org/1999/xlink" x="0px" y="0px"
	 viewBox="0 0 736.8 730.3" style="enable-background:new 0 0 736.8 730.3;" xml:space="preserve">
<style type="text/css">
	.st0{fill:#F0F0F0;}
	.st1{fill:#FFFFFF;}
	.st2{fill:#3F3D56;}
	.st3{fill:#FFB6B6;}
	.st4{fill:#E4E4E4;}
	.st5{fill:#2F2E41;}
	.st6{fill:#F9617D;}
	.st7{fill:#CACACA;}
	.st8{fill:#9F616A;}
</style>
<g>
	<path class="st0" d="M221.2,321.5l-1.7,0.2c-5.8,3.9-11.7,7.9-18.3,10.3c-6.6,2.3-14.1,2.9-20.5,0c-10.3-4.7-14.7-16.4-19.7-26.6
		c-13-26.2-34.8-46.9-61.6-58.6c23.8-12.5,54.3-6.3,75.9,9.6S210.9,296.6,221.2,321.5z"/>
	<path class="st1" d="M99.5,247.3c-0.8,0-0.9-1.2-0.1-1.2c12.3,0.4,24.4,2.9,35.9,7.3c10,3.9,19.4,9.3,27.8,16.1
		c3.8,3,7,6.5,9.6,10.6c2.3,3.9,3.6,8.4,3.7,12.9c0.3,4.4,0.1,9,1.8,13.2c1.9,4.8,6.3,7.6,11.1,9c10.2,3,21.6-0.3,31.3,4.7
		c0.7,0.4,0.2,1.4-0.5,1.1c-5.6-2.9-12-3-18.1-3.1c-5.5-0.1-11.2-0.5-16.3-2.8c-4.2-1.8-7.5-5.3-8.9-9.6c-1.4-4.2-1.2-8.7-1.5-13
		c-0.2-4.7-1.7-9.2-4.3-13.1c-2.8-3.9-6.1-7.4-10-10.2C143.2,255.7,121.7,248,99.5,247.3L99.5,247.3z"/>
	<path class="st1" d="M155.4,264.6c-0.4,0.7-1.5,0.2-1.1-0.5c3.7-6.3,2.2-14.3-3.4-18.8c-0.6-0.5,0.2-1.4,0.8-0.9
		C157.7,249.3,159.3,257.8,155.4,264.6L155.4,264.6z"/>
	<path class="st1" d="M175.3,290.4c0.7-0.2,1.1,0.9,0.4,1.1c-7.7,2.2-16,1.4-23.1-2.3c-0.7-0.3-0.2-1.4,0.5-1.1
		C159.9,291.6,167.8,292.4,175.3,290.4L175.3,290.4z"/>
	<path class="st1" d="M123.9,250.6c0.1-0.3,0.5-0.4,0.8-0.3c0.3,0.1,0.4,0.5,0.3,0.8c-1.1,3.2-3.6,5.6-6.9,6.5
		c-0.7,0.2-1.1-0.9-0.4-1.1C120.6,255.7,122.9,253.5,123.9,250.6L123.9,250.6z"/>
	<path class="st0" d="M81,334.6c7.9-15.7,22.7-26.7,39.6-32.3c8.5-2.8,17.3-4.3,26.2-4.4c3.5,0,6.9,0.1,10.3,0.4
		c6.3,0.6,12.5,1.7,18.6,3.3c0.4,0.1,0.8,0.2,1.2,0.3c13.5,3.7,26.5,9.5,38.9,16.3c0,0,0,0,0,0c1.6,0.9,3.2,1.8,4.8,2.7
		c0.1,0.1,0.2,0.1,0.3,0.2c0,0,0.1,0,0.1,0.1c0.1,0.1,0.2,0.1,0.3,0.2c0.2,0.1,0.3,0.2,0.5,0.3c0.3,0.2,0.6,0.3,0.8,0.5l-1.3,1.2
		c0,0.1-0.1,0.2-0.1,0.3l-30.2,31.8c-0.9,0-1.7-0.1-2.6-0.2c-8.2-1.1-16.1-5.8-23.7-9.6c-5.5-2.8-11.2-5.1-17-7
		c-14.7-4.8-30.1-6.8-45.6-5.9c-0.5,0-1,0.1-1.5,0.1c-6.4,0.4-12.8,1.4-19,2.8c-0.5,0.1-0.9,0.2-1.4,0.3
		C80.6,335.4,80.8,335,81,334.6z"/>
	<path class="st1" d="M80.9,336.2c-0.6,0.4-1.4-0.4-0.8-0.9c10-7.1,21.2-12.4,33-15.7c10.4-3,21.1-4.3,31.9-3.9
		c4.8,0.1,9.5,1,14,2.7c4.2,1.8,7.9,4.5,10.8,8.1c2.9,3.3,5.5,7.1,9.4,9.5c4.4,2.6,9.6,2.3,14.3,0.5c10-3.8,17.1-13.2,27.9-15.1
		c0.8-0.1,1,1,0.2,1.2c-6.2,1.1-11.3,4.9-16.3,8.4c-4.5,3.2-9.2,6.4-14.7,7.6c-4.4,1.1-9.1,0.3-12.9-2.3c-3.6-2.5-6.2-6.2-9-9.5
		c-3-3.6-6.9-6.3-11.3-7.8c-4.6-1.5-9.3-2.2-14.1-2.1C120.8,316.5,99.1,323.3,80.9,336.2L80.9,336.2z"/>
	<path class="st1" d="M135.9,316.3c0.1,0.8-1.1,1-1.2,0.2c-0.9-7.2-6.8-12.7-14.1-13c-0.8,0-0.7-1.2,0.1-1.2
		C128.5,302.7,135,308.6,135.9,316.3L135.9,316.3z"/>
	<path class="st1" d="M167.3,324.9c0.5-0.6,1.5,0,1,0.6c-4.9,6.4-11.9,10.7-19.8,12.1c-0.8,0.1-1-1-0.2-1.2
		C155.8,335.2,162.6,331,167.3,324.9L167.3,324.9z"/>
	<path class="st1" d="M102.3,324.1c-0.1-0.3,0.1-0.6,0.5-0.7c0.3-0.1,0.6,0.1,0.7,0.5c1.1,3.2,0.5,6.7-1.6,9.3c-0.5,0.6-1.5,0-1-0.6
		C102.8,330.1,103.3,327,102.3,324.1L102.3,324.1z"/>
	<path class="st2" d="M180.9,325.8h2.3v241.9l0,0c0,20.5,16.6,37.1,37.1,37.1h135.8c20.5,0,37.1-16.6,37.1-37.1V216.1
		c0-20.5-16.6-37.1-37.1-37.1H220.3c-20.5,0-37.1,16.6-37.1,37.1v64.1h-2.3V325.8z"/>
	<path class="st1" d="M191.1,216.4v351.1l0,0c0,0,0,0,0,0c0,15.3,12.4,27.7,27.7,27.7h136.5c0,0,0,0,0,0c15.3,0,27.7-12.4,27.7-27.7
		V216.4c0-15.3-12.4-27.7-27.7-27.7h-16.6c0.6,1.6,1,3.3,1,5c0,7.3-5.9,13.2-13.2,13.2h-77.8c-1.7,0-3.4-0.3-5-1
		c-6.7-2.7-10-10.4-7.2-17.2h-17.7C203.5,188.7,191.1,201.1,191.1,216.4z"/>
	<path class="st0" d="M284.5,482.4c-32.7,0-61.8-20.8-72.4-51.8c-13.6-40,7.7-83.5,47.7-97.1c19.6-6.6,41-5.1,59.4,4.3
		c25.6,13,41.8,39.4,41.8,68.2c0,0,0,0.1,0,0.1C360.9,448.3,326.7,482.4,284.5,482.4L284.5,482.4z M234.5,351.9
		c-29.8,27.5-31.6,74-4.1,103.8c3.3,3.6,7,6.9,11,9.7c3.1,2.2,6.3,4.2,9.7,5.9c36.2,18.4,80.4,4,98.9-32.1
		c18.4-36.2,4-80.4-32.1-98.9c-10.3-5.3-21.8-8-33.4-8C265.9,332.4,248.1,339.4,234.5,351.9z"/>
	<path class="st3" d="M450.2,338c6.7-0.9,13.1,2.9,15.5,9.2c2.9,7.5-0.9,15.9-8.4,18.8l-35.5,30.4l-9.1-18.6l25.4-21.2
		c-0.3-0.8-0.4-1.6-0.5-2.5C436.7,346.2,442.3,339,450.2,338L450.2,338z"/>
	<path class="st4" d="M212.5,427.2c3.3,11,9,21.1,16.8,29.5l11.2,9.9c29.8,21.6,70.9,18.3,97-7.7l-4.3-24l1.7-6.8l19.7,4.6l26.2,6.1
		l70.5-63.6l-2.7-1.7l-17.2-11.2l-2.6-1.7l-54.4,38.4l-15.7-4.5l-15.9-4.6l0,0c-0.8-2.5-2.7-4.4-5.2-5.3l-17.7-6.6l-6.3-17.2
		l-49.4,5.3l-1.2,13.5c-4.8,1.5-40.3,13.3-45.8,27.7c-1.8,3.6-3.9,13.5-4.4,19L212.5,427.2z"/>
	
		<ellipse transform="matrix(0.3143 -0.9493 0.9493 0.3143 -104.9604 486.8977)" class="st3" cx="284.6" cy="316.1" rx="35.5" ry="35.5"/>
	<path class="st5" d="M318.3,290.4c1.3,6.9,1.7,13.8,1.2,20.8c-1.1-4-2.5-8.4-6.2-10.1c-1.9-0.7-4-0.9-6-0.6
		c-15.1,0.9-30,2.7-44.9,5.3c-2.9,0.5-6.1,1.2-8.2,3.3c-3.2,3.2-3,8.5-2.2,13c0.8,4.3,2,8.7,0.9,12.8c-5.7-5.5-10.7-12-12.9-19.6
		c-2.3-8.1-0.8-17.7,5.3-23.2c-2.7-1-5.3-2-8-3c1.9-0.9,3.9-1.8,5.8-2.7c-2-1.1-3.9-2.3-5.9-3.4c3.9-0.2,8.2-0.6,10.6-3.7
		c0.8-1.3,1.5-2.6,2-4c2.7-5.3,8.3-8.5,14.1-9.3c5.8-0.7,11.7,0.7,17.1,2.9c5-3.2,11.1-4.3,16.9-3.1c5.9,1.3,11.1,4.7,14.5,9.7
		C315.7,279.9,317.3,285.2,318.3,290.4z"/>
	<path class="st6" d="M261,513c0-3,2.5-5.5,5.5-5.5l42,0c3,0,5.5,2.5,5.5,5.5c0,3-2.5,5.5-5.5,5.5h-42C263.4,518.5,261,516,261,513z
		"/>
	<path class="st6" d="M400.3,220.1c0-2.2,1.8-4,4-4h115.5c2.2,0,4,1.8,4,4c0,2.2-1.8,4-4,4H404.3
		C402.1,224.1,400.3,222.3,400.3,220.1z"/>
	<path class="st6" d="M333.6,245.8c0-2.2,1.8-4,4-4h182.2c2.2,0,4,1.8,4,4s-1.8,4-4,4H337.6C335.4,249.8,333.6,248,333.6,245.8z"/>
	<path class="st7" d="M368.6,269.9c0-2.2,1.8-4,4-4h147.2c2.2,0,4,1.8,4,4s-1.8,4-4,4H372.6C370.4,274,368.6,272.2,368.6,269.9z"/>
	<path class="st7" d="M436.8,298.1c-2.2,0-4-1.8-4-4s1.8-4,4-4h83c2.2,0,4,1.8,4,4s-1.8,4-4,4H436.8L436.8,298.1z"/>
	<path class="st7" d="M390.9,322.1c-2.2,0-4-1.8-4-4c0-2.2,1.8-4,4-4h128.9c2.2,0,4,1.8,4,4c0,2.2-1.8,4-4,4H390.9L390.9,322.1z"/>
	<polygon class="st8" points="27.7,675.3 43,675.3 38.1,715.2 27.8,715.2 	"/>
	<path class="st5" d="M23.7,713.7l3.5,0l13.5-5.5l7.2,5.5h0c8.5,0,15.4,6.9,15.4,15.4v0.5l-39.5,0L23.7,713.7z"/>
	<path class="st8" d="M33.8,527.5c0.1,0.1,0.2,0.1,0.3,0.2c4,3.2,4.6,9.1,1.3,13.1c-3.2,4-9.1,4.6-13.1,1.3c-4-3.2-4.6-9.1-1.3-13.1
		l-5.8-53.9l6.7-28.6l20.1,4.4l-3.6,20.9L33.8,527.5L33.8,527.5z"/>
	<polygon class="st8" points="82.7,675.3 98,675.3 93.1,715.2 82.8,715.2 	"/>
	<path class="st5" d="M26.4,538.9l0.9,154.4l-0.8,12.2l13.8,0l3.2-10.4c8.8-3,19.3-127.6,19.3-127.6l18,126.9l0.4,9.1l15.1-1.4
		l1.4-10.3c8-12,8-109.4,9.7-125.8s-3.4-17.8-3.4-17.8l-4.6-7.9L26.4,538.9z"/>
	<path class="st4" d="M74,551.7c-7,0-30-7.7-36.2-6.8c-6.2,0.8-11.6,1.6-13.6-3.5l0-0.1l0-0.1l6.2-83.2l-8.2-28.8l0-0.1
		c0-0.1,3.1-14.4,16.5-21.1l20.8-13.4h21l24.2,22.2l0,0.2c-6.7,49.3-9.4,95.2,0.1,130.6l-0.3,0.1C103.4,547.7,87.7,551.7,74,551.7z"
		/>
	<path class="st4" d="M45.5,471.5l-33,5l9.6-46.7L34,415.2l9,3.9L45.5,471.5z"/>
	<path class="st8" d="M181.8,505.2c0.1,0,0.2-0.1,0.3-0.1c5-1.2,10,2,11.1,7c1.2,5-2,10-7,11.1c-5,1.2-10-2-11.1-7l-46.2-28.4
		l-18.5-22.8l15.8-13.2l14.3,15.6L181.8,505.2L181.8,505.2z"/>
	<path class="st4" d="M128.1,490.7l-31.6-37.8l0.5-34.9l0.2-0.1c0.1-0.1,6.7-4.9,15.1,4.6c8.2,9.2,17.7,30.4,17.8,30.6l11.4,14.8
		L128.1,490.7z"/>
	<circle class="st8" cx="72" cy="370.5" r="19.3"/>
	<path class="st5" d="M87.1,376.6c-0.9,1.3-1.2-3-4.6-2.1c-2.2,0.6-0.8,4.6-0.8,5.9s-11.5,8.7-13.8,8.2c-11.5-2.3-13.2-3.1-15.7-5.5
		c-1.5-1.5-7.7-16.3-9.8-22.7s11.1-14.1,14.1-16.3s17.5-3.4,18.8-1.7s9.4,1.3,9.4,1.3s2.1,0.9,2.6,2.1s0.4,1.7,0.9,0.9
		s0.9,0.4,0.9,0.4s0.4,3.4,0.9,3s1.3,0,1.3,0s0.4,2.1,1.3,2.1s-0.9,2.6-1.7,5.6s-1,9.8-1,9.8S87.9,375.3,87.1,376.6z"/>
	<path class="st5" d="M78.7,713.7l3.5,0l13.5-5.5l7.2,5.5h0c8.5,0,15.4,6.9,15.4,15.4v0.5l-39.5,0L78.7,713.7z"/>
</g>
</svg>
