<svg width="1440" height="1024" viewBox="0 0 1440 1024" fill="none" xmlns="http://www.w3.org/2000/svg">
<path d="M199.567 471.183L119 516.284L199.567 564.274H397.077C398.108 564.274 399.098 564.672 399.843 565.384L472.335 634.772C473.08 635.485 474.07 635.883 475.101 635.883H890.119C891.556 635.883 892.883 636.654 893.595 637.903L1112.28 1021.98C1112.99 1023.23 1114.32 1024 1115.75 1024H1553.99C1556.85 1024 1558.79 1021.09 1557.68 1018.46L1351.16 524.252C1350.75 523.284 1350.74 522.195 1351.13 521.222L1557.8 5.48788C1558.85 2.86009 1556.92 0 1554.09 0H1088.26C1086.76 0 1085.38 0.848731 1084.7 2.19498L893.554 380.194C892.873 381.54 891.493 382.389 889.984 382.389H475.356C474.176 382.389 473.057 382.909 472.297 383.811L399.882 469.761C399.122 470.663 398.002 471.183 396.823 471.183H199.567Z" fill="#F9617D"/>
<path d="M79.5671 471.183L-1 516.284L79.5671 564.274H317.077C318.108 564.274 319.098 564.672 319.843 565.384L392.335 634.772C393.08 635.485 394.07 635.883 395.101 635.883H810.119C811.556 635.883 812.883 636.654 813.595 637.903L1032.28 1021.98C1032.99 1023.23 1034.32 1024 1035.75 1024H1473.99C1476.85 1024 1478.79 1021.09 1477.68 1018.46L1271.16 524.252C1270.75 523.284 1270.74 522.195 1271.13 521.222L1477.8 5.48788C1478.85 2.86009 1476.92 0 1474.09 0H1008.26C1006.76 0 1005.38 0.848731 1004.7 2.19498L813.554 380.194C812.873 381.54 811.493 382.389 809.984 382.389H395.356C394.176 382.389 393.057 382.909 392.297 383.811L319.882 469.761C319.122 470.663 318.002 471.183 316.823 471.183H79.5671Z" fill="#FC3C60"/>
</svg>
