<svg width="1439" height="1024" viewBox="0 0 1439 1024" fill="none" xmlns="http://www.w3.org/2000/svg">
<path d="M79.5671 471.183L-1 516.284L79.5671 564.274H277.077C278.108 564.274 279.098 564.672 279.843 565.384L352.335 634.772C353.08 635.485 354.07 635.883 355.101 635.883H770.119C771.556 635.883 772.883 636.654 773.595 637.903L992.278 1021.98C992.989 1023.23 994.316 1024 995.754 1024H1433.99C1436.85 1024 1438.79 1021.09 1437.68 1018.46L1231.16 524.252C1230.75 523.284 1230.74 522.195 1231.13 521.222L1437.8 5.48788C1438.85 2.86009 1436.92 0 1434.09 0H968.265C966.756 0 965.376 0.848731 964.695 2.19498L773.554 380.194C772.873 381.54 771.493 382.389 769.984 382.389H355.356C354.176 382.389 353.057 382.909 352.297 383.811L279.882 469.761C279.122 470.663 278.002 471.183 276.823 471.183H79.5671Z" fill="#F9617D"/>
</svg>
