<svg width="774" height="415" viewBox="0 0 774 415" fill="none" xmlns="http://www.w3.org/2000/svg">
<path d="M0 415V0H331V165.5H311V319H156V415H0Z" fill="#4B56C0"/>
<path d="M368.5 415V0H612C665.833 5.16667 773.5 53.6 773.5 206C773.5 358.4 665.833 408.833 612 415H368.5Z" fill="#4B56C0"/>
<path d="M512.036 0H721.006L632.831 181.952L747 369H534.972L423.861 221.706H241.395L217.44 196.732H133.342C118.562 194.523 89 188.781 89 183.481C89 178.18 118.562 171.758 133.342 169.21H217.44L241.395 141.688H423.861L512.036 0Z" fill="#F9617D"/>
</svg>
