<svg width="293" height="163" viewBox="0 0 293 163" fill="none" xmlns="http://www.w3.org/2000/svg">
<path d="M158.064 19.8019C126.974 19.7605 96.8322 30.5034 72.7769 50.1991L167.938 145.362L169.331 169.58L145.572 167.532L50.853 72.8124C32.3677 97.006 22.6086 126.74 23.1619 157.182C23.7153 187.625 34.5486 216.985 53.9009 240.49C73.2533 263.996 99.987 280.266 129.757 286.655C159.526 293.043 190.582 289.176 217.875 275.681C245.168 262.186 267.095 239.856 280.091 212.322C293.087 184.788 296.388 153.667 289.458 124.019C282.528 94.3714 265.774 67.9389 241.919 49.0181C218.065 30.0973 188.512 19.8007 158.064 19.8019H158.064Z" fill="#F9617D"/>
<path d="M158.064 43.6671C133.303 43.6318 109.247 51.9086 89.7498 67.1715L167.938 145.361L169.331 169.58L145.572 167.532L67.9153 89.8741C53.3608 110.107 46.0354 134.648 47.1175 159.549C48.1995 184.449 57.626 208.262 73.8808 227.157C90.1355 246.051 112.273 258.929 136.733 263.718C161.193 268.507 186.553 264.929 208.734 253.561C230.914 242.192 248.626 223.693 259.019 201.039C269.412 178.385 271.883 152.894 266.035 128.666C260.186 104.438 246.357 82.881 226.773 67.4638C207.189 52.0466 182.989 43.6649 158.064 43.6671Z" fill="#7B81D8"/>
<path d="M158.064 67.9908C139.758 67.967 121.918 73.7641 107.122 84.5444L167.938 145.362L169.33 169.58L145.572 167.532L85.4057 107.366C74.8698 123.53 70.0245 142.746 71.6363 161.973C73.248 181.201 81.2249 199.342 94.3049 213.527C107.385 227.712 124.821 237.13 143.855 240.292C162.89 243.455 182.435 240.18 199.399 230.987C216.363 221.794 229.777 207.207 237.52 189.533C245.263 171.86 246.891 152.11 242.148 133.407C237.406 114.704 226.562 98.1168 211.333 86.2689C196.104 74.421 177.359 67.9891 158.064 67.9908Z" fill="#F9617D"/>
<path d="M158.064 92.107C146.161 92.092 134.503 95.4875 124.469 101.892L167.938 145.362L169.33 169.58L145.572 167.532L102.999 124.959C96.4835 137.019 94.1064 150.884 96.2321 164.426C98.3579 177.967 104.869 190.437 114.766 199.921C124.663 209.405 137.4 215.379 151.02 216.926C164.64 218.473 178.391 215.507 190.163 208.484C201.935 201.461 211.077 190.769 216.185 178.048C221.293 165.328 222.086 151.283 218.441 138.069C214.796 124.855 206.916 113.202 196.009 104.899C185.102 96.5965 171.771 92.1024 158.064 92.107Z" fill="#7B81D8"/>
<path d="M158.064 116.354C152.635 116.349 147.266 117.503 142.318 119.739L167.938 145.361L169.331 169.58L145.572 167.532L121.409 143.369C119.015 151.089 119.12 159.369 121.709 167.026C124.298 174.684 129.238 181.329 135.826 186.013C142.413 190.697 150.312 193.183 158.395 193.114C166.478 193.045 174.333 190.426 180.84 185.631C187.347 180.835 192.174 174.107 194.632 166.407C197.09 158.706 197.055 150.427 194.53 142.748C192.006 135.069 187.121 128.383 180.573 123.643C174.025 118.904 166.148 116.353 158.064 116.354Z" fill="#F9617D"/>
<path d="M156.721 134.146L167.426 145.439L169.33 169.58L145.572 167.532L139.712 161.672C142.918 168.883 147.835 174.763 158.004 175.336C170.392 176.035 178.601 166.114 178.601 154.741C178.601 143.393 168.055 134.195 156.721 134.146Z" fill="#7B81D8"/>
<path d="M23.9494 0.245117L17.9775 18.1887L0 24.1476L22.5755 46.6806L32.8307 43.2034L146.621 156.783L157.471 157.717L156.83 146.595L43.0257 33.0019L46.5215 22.7763L23.9494 0.245117Z" fill="#F9617D"/>
</svg>
